<svg version="1" xmlns="http://www.w3.org/2000/svg" width="103" height="23"><text transform="translate(0 22.797)" fill="#FFF" font-family="'ArialMT'" font-size="21" letter-spacing="5">PENTA</text><path fill="#FFF" d="M95.959 0h.148l.127.02c.296.045.547.173.766.378.332.311.734.497 1.166.621.328.095.662.142 1.005.114.136-.011.272-.024.407-.013a1.364 1.364 0 0 1 1.205 1.078c.072.365.215.698.418 1.006.27.408.6.749 1.033.991a1.37 1.37 0 0 1 .616 1.623c-.045.135-.114.262-.159.396-.129.38-.166.77-.14 1.168.02.34.082.669.23.978.106.224.155.457.133.703-.043.476-.26.85-.674 1.088a2.907 2.907 0 0 0-.834.715c-.304.38-.527.8-.623 1.286a1.366 1.366 0 0 1-1.34 1.086c-.118 0-.235-.02-.353-.025-.344-.018-.68.039-1.007.142a2.997 2.997 0 0 0-1.136.641 1.366 1.366 0 0 1-1.838-.006 2.76 2.76 0 0 0-.886-.547c-.448-.175-.91-.27-1.395-.218-.129.013-.26.015-.389 0a1.35 1.35 0 0 1-1.146-1.028 3.055 3.055 0 0 0-.37-.953c-.28-.452-.63-.83-1.102-1.093a1.361 1.361 0 0 1-.632-1.531c.04-.145.11-.28.163-.422.138-.376.18-.767.164-1.165a2.639 2.639 0 0 0-.237-1.051 1.23 1.23 0 0 1-.127-.457c-.037-.573.174-1.03.67-1.323.371-.22.679-.498.932-.842.249-.341.435-.71.52-1.129a1.37 1.37 0 0 1 1.134-1.104c.158-.029.317-.014.475.003.351.037.693-.017 1.03-.115.448-.132.86-.335 1.204-.663a1.21 1.21 0 0 1 .569-.302c.09-.021.181-.034.273-.05zm-3.087 10.124h.005c0 .062-.004.125 0 .185.037.492.434.803.912.697.188-.039.368-.111.545-.183.463-.19.93-.35 1.438-.37.556-.02 1.098.025 1.619.239.252.103.505.203.763.289a.774.774 0 0 0 .65-.043c.27-.15.378-.4.383-.693a6.63 6.63 0 0 0-.029-.682 3.518 3.518 0 0 1 .069-1.121c.119-.507.298-.99.608-1.414.169-.23.36-.443.536-.667.08-.1.158-.205.214-.319.136-.278.128-.551-.077-.8a.829.829 0 0 0-.393-.262c-.162-.053-.329-.095-.494-.139-.35-.091-.702-.174-1.023-.35-.516-.283-.98-.63-1.33-1.107-.187-.257-.346-.534-.524-.799a1.436 1.436 0 0 0-.187-.23c-.252-.249-.584-.297-.875-.132a.94.94 0 0 0-.313.288 7.424 7.424 0 0 0-.281.431 3.795 3.795 0 0 1-1 1.148c-.37.276-.762.512-1.211.637-.225.062-.451.12-.678.177-.191.048-.379.104-.535.233a.681.681 0 0 0-.268.644c.026.193.115.357.234.506.111.139.222.28.339.413.295.333.525.705.68 1.123.167.451.285.912.273 1.396-.008.303-.033.604-.05.905z"/><path clip-rule="evenodd" fill="none" d="M95.959 0c-.092.016-.184.029-.273.05a1.21 1.21 0 0 0-.569.302c-.344.328-.756.53-1.205.663a2.633 2.633 0 0 1-1.03.115 1.627 1.627 0 0 0-.474-.003 1.37 1.37 0 0 0-1.135 1.104c-.084.419-.27.788-.52 1.129-.252.344-.56.622-.93.842-.497.294-.708.75-.67 1.323.01.16.057.312.126.457.158.332.223.686.237 1.05.015.4-.026.79-.164 1.166-.053.141-.124.277-.163.422-.16.588.102 1.234.632 1.53.472.265.822.642 1.102 1.094.182.295.294.615.37.953.12.541.596.963 1.146 1.028.128.015.26.013.39 0 .484-.051.946.043 1.394.218.33.127.625.307.886.547a1.366 1.366 0 0 0 1.838.006 2.997 2.997 0 0 1 1.136-.64c.327-.104.663-.16 1.007-.143.118.006.235.025.353.025a1.366 1.366 0 0 0 1.34-1.086c.096-.486.319-.905.623-1.286.232-.291.509-.528.834-.715.413-.238.631-.612.674-1.088a1.34 1.34 0 0 0-.134-.703 2.581 2.581 0 0 1-.23-.978c-.025-.398.012-.789.141-1.168.045-.134.114-.261.159-.396a1.37 1.37 0 0 0-.616-1.623c-.432-.242-.763-.583-1.033-.991a2.79 2.79 0 0 1-.418-1.006 1.364 1.364 0 0 0-1.205-1.078c-.135-.011-.271.002-.407.013a2.785 2.785 0 0 1-1.005-.114c-.432-.124-.834-.31-1.166-.62a1.401 1.401 0 0 0-.766-.379L96.107 0H103v14.406H89.065V0h6.894z"/><path clip-rule="evenodd" fill="none" d="M92.872 10.124c.017-.301.042-.602.05-.905.012-.484-.106-.945-.273-1.396a3.55 3.55 0 0 0-.68-1.123c-.117-.134-.228-.274-.34-.413a1.02 1.02 0 0 1-.233-.506.681.681 0 0 1 .268-.644c.156-.129.344-.185.535-.233.227-.057.453-.115.678-.177.45-.125.84-.36 1.21-.637.418-.31.74-.702 1-1.148.089-.148.184-.29.282-.431a.94.94 0 0 1 .313-.288c.29-.165.623-.117.875.132.07.07.132.148.187.23.178.265.337.542.525.799.35.478.813.824 1.329 1.107.32.176.672.258 1.023.35.165.044.332.086.494.139.155.05.29.136.393.262.205.249.213.522.077.8a1.834 1.834 0 0 1-.214.319c-.176.224-.367.437-.536.667-.31.424-.49.907-.608 1.414-.088.37-.101.744-.069 1.121.02.227.033.455.03.682-.006.293-.114.544-.383.693a.774.774 0 0 1-.65.043 12.013 12.013 0 0 1-.764-.29c-.52-.213-1.063-.259-1.619-.237-.507.02-.975.18-1.438.369a3.164 3.164 0 0 1-.545.183c-.478.106-.875-.205-.911-.697-.005-.06-.001-.123-.001-.185h-.005z"/></svg>